<svg width="512" height="512" viewBox="0 0 512 512" fill="none" xmlns="http://www.w3.org/2000/svg">
  <rect width="512" height="512" rx="128" fill="#FFF8DF"/>
  <circle cx="158" cy="146" r="116" fill="#F9DF8A" fill-opacity="0.72"/>
  <circle cx="354" cy="326" r="132" fill="#D7A83F" fill-opacity="0.32"/>
  <rect x="92" y="112" width="328" height="288" rx="76" fill="white" fill-opacity="0.58"/>
  <rect x="92.8" y="112.8" width="326.4" height="286.4" rx="75.2" stroke="white" stroke-opacity="0.8" stroke-width="1.6"/>
  <path d="M256 332C254 332 252 331.3 250.4 329.9C222.6 305.2 204.1 288.1 194.9 278.6C181.6 264.9 175 250.5 175 235.4C175 222.9 179.2 212.5 187.6 204.2C196 195.9 206.5 191.8 219.1 191.8C233.5 191.8 245.8 197.8 256 209.8C266.2 197.8 278.5 191.8 292.9 191.8C305.5 191.8 316 195.9 324.4 204.2C332.8 212.5 337 222.9 337 235.4C337 250.5 330.4 264.9 317.1 278.6C307.9 288.1 289.4 305.2 261.6 329.9C260 331.3 258 332 256 332Z" fill="#A97112"/>
</svg>
